<?xml version="1.0" encoding="UTF-8" standalone="no"?>
<!-- Created with Inkscape (http://www.inkscape.org/) -->

<svg
   xmlns:dc="http://purl.org/dc/elements/1.1/"
   xmlns:cc="http://creativecommons.org/ns#"
   xmlns:rdf="http://www.w3.org/1999/02/22-rdf-syntax-ns#"
   xmlns:svg="http://www.w3.org/2000/svg"
   xmlns="http://www.w3.org/2000/svg"
   xmlns:sodipodi="http://sodipodi.sourceforge.net/DTD/sodipodi-0.dtd"
   xmlns:inkscape="http://www.inkscape.org/namespaces/inkscape"
   width="210mm"
   height="297mm"
   id="svg2"
   version="1.1"
   inkscape:version="0.91pre2 r13516"
   viewBox="0 0 744.09447 1052.3622"
   sodipodi:docname="close.svg">
  <defs
     id="defs4" />
  <sodipodi:namedview
     id="base"
     pagecolor="#ffffff"
     bordercolor="#666666"
     borderopacity="1.0"
     inkscape:pageopacity="0.0"
     inkscape:pageshadow="2"
     inkscape:zoom="0.98994949"
     inkscape:cx="341.88852"
     inkscape:cy="598.84614"
     inkscape:document-units="px"
     inkscape:current-layer="layer1"
     showgrid="false"
     inkscape:window-width="988"
     inkscape:window-height="998"
     inkscape:window-x="2"
     inkscape:window-y="2"
     inkscape:window-maximized="0" />
  <metadata
     id="metadata7">
    <rdf:RDF>
      <cc:Work
         rdf:about="">
        <dc:format>image/svg+xml</dc:format>
        <dc:type
           rdf:resource="http://purl.org/dc/dcmitype/StillImage" />
        <dc:title />
      </cc:Work>
    </rdf:RDF>
  </metadata>
  <g
     inkscape:label="Camada 1"
     inkscape:groupmode="layer"
     id="layer1">
    <rect
       style="opacity:1;fill:#4d4d4d;fill-rule:evenodd;stroke:#000000;stroke-width:2.44952154px;stroke-linecap:butt;stroke-linejoin:miter;stroke-opacity:1"
       id="rect4137"
       width="591.51001"
       height="1591.561"
       x="17.897343"
       y="34.853176" />
    <circle
       style="fill:none;stroke:#ffffff;stroke-width:7.30502605;stroke-miterlimit:4;stroke-dasharray:none;stroke-opacity:1"
       id="path4139"
       cx="169.99998"
       cy="192.36218"
       r="46.347488"
       inkscape:export-xdpi="28.799999"
       inkscape:export-ydpi="28.799999" />
    <g
       id="g4160"
       transform="translate(-134.99999,14.999993)"
       inkscape:export-xdpi="28.799999"
       inkscape:export-ydpi="28.799999">
      <rect
         transform="matrix(0.70710679,-0.70710677,0.70710679,0.70710677,0,0)"
         y="310.77701"
         x="85.202805"
         height="60.609154"
         width="10.101525"
         id="rect4141-7"
         style="fill:#ffffff;fill-opacity:1;stroke:none;stroke-width:5;stroke-miterlimit:4;stroke-dasharray:none;stroke-opacity:1" />
      <rect
         transform="matrix(0.70710679,0.70710677,-0.70710679,0.70710677,0,0)"
         style="fill:#ffffff;fill-opacity:1;stroke:none;stroke-width:5;stroke-miterlimit:4;stroke-dasharray:none;stroke-opacity:1"
         id="rect4158"
         width="10.101525"
         height="60.609154"
         x="336.03079"
         y="-120.55813" />
    </g>
    <circle
       r="46.347488"
       cy="424.69727"
       cx="165.95938"
       id="circle4164"
       style="fill:none;stroke:#000000;stroke-width:7.30502605;stroke-miterlimit:4;stroke-dasharray:none;stroke-opacity:1" />
    <g
       transform="translate(-139.0406,247.33508)"
       id="g4166"
       style="fill:#000000;fill-opacity:1">
      <rect
         style="fill:#000000;fill-opacity:1;stroke:none;stroke-width:5;stroke-miterlimit:4;stroke-dasharray:none;stroke-opacity:1"
         id="rect4168"
         width="10.101525"
         height="60.609154"
         x="85.202805"
         y="310.77701"
         transform="matrix(0.70710679,-0.70710677,0.70710679,0.70710677,0,0)" />
      <rect
         y="-120.55813"
         x="336.03079"
         height="60.609154"
         width="10.101525"
         id="rect4170"
         style="fill:#000000;fill-opacity:1;stroke:none;stroke-width:5;stroke-miterlimit:4;stroke-dasharray:none;stroke-opacity:1"
         transform="matrix(0.70710679,0.70710677,-0.70710679,0.70710677,0,0)" />
    </g>
    <path
       style="opacity:1;fill:#ffffff;fill-opacity:1;stroke:none;stroke-width:5.74567366;stroke-miterlimit:4;stroke-dasharray:none;stroke-opacity:1"
       d="m 284.3509,565.50925 -29.83215,-29.83215 -0.16785,0 0,30 30,0 0,-0.16785 z"
       id="rect4169"
       inkscape:connector-curvature="0" />
    <rect
       transform="matrix(0.70710679,-0.70710677,0.70710679,0.70710677,0,0)"
       y="575.1955"
       x="-160.44328"
       height="60.609154"
       width="10.101525"
       id="rect4163"
       style="fill:#ffffff;fill-opacity:1;stroke:none;stroke-width:5;stroke-miterlimit:4;stroke-dasharray:none;stroke-opacity:1" />
    <rect
       transform="matrix(0.70710679,0.70710677,-0.70710679,0.70710677,0,0)"
       style="fill:#ffffff;fill-opacity:1;stroke:none;stroke-width:5;stroke-miterlimit:4;stroke-dasharray:none;stroke-opacity:1"
       id="rect4165"
       width="10.101525"
       height="60.609154"
       x="574.99347"
       y="150.54378" />
    <g
       id="g4247"
       transform="translate(-9.0913731,6.0609154)"
       inkscape:export-xdpi="24"
       inkscape:export-ydpi="24">
      <circle
         r="55.522633"
         inkscape:export-ydpi="14.8"
         inkscape:export-xdpi="14.8"
         cy="137.36218"
         cx="350"
         id="path4139-0"
         style="fill:none;stroke:#ffffff;stroke-width:8.95473766;stroke-miterlimit:4;stroke-dasharray:none;stroke-opacity:1"
         d="M 405.52263,137.36218 A 55.522633,55.522633 0 0 1 350,192.88482 55.522633,55.522633 0 0 1 294.47737,137.36218 55.522633,55.522633 0 0 1 350,81.83955 a 55.522633,55.522633 0 0 1 55.52263,55.52263 z" />
      <g
         transform="matrix(0.99958763,0,0,0.99897655,-44.180681,-77.661489)"
         id="g4206">
        <path
           inkscape:connector-curvature="0"
           style="opacity:1;fill:none;fill-opacity:1;stroke:#ffffff;stroke-width:8.44071674;stroke-miterlimit:4;stroke-dasharray:none;stroke-opacity:1"
           d="m 396.98828,199.37695 a 40.806485,45.857247 0 0 0 -37.79883,28.66407 l 3.78321,0 a 39.139347,46.981566 0 0 1 34.01562,-23.92383 39.139347,46.981566 0 0 1 33.35938,22.58008 l 3.38281,-1.23243 a 40.806485,45.857247 0 0 0 -36.74219,-26.08789 z"
           transform="translate(-1.2356376e-5,0)"
           id="path4174" />
        <path
           inkscape:connector-curvature="0"
           id="path4183"
           d="m 381.32555,232.0928 -29.83215,-29.83215 -0.16785,0 0,30 30,0 0,-0.16785 z"
           style="opacity:1;fill:#ffffff;fill-opacity:1;stroke:none;stroke-width:5.74567366;stroke-miterlimit:4;stroke-dasharray:none;stroke-opacity:1" />
      </g>
    </g>
    <g
       id="g4210"
       transform="matrix(-1,0,0,1,805.35491,189.10081)"
       inkscape:export-xdpi="18.4"
       inkscape:export-ydpi="18.4">
      <path
         style="opacity:1;fill:none;fill-opacity:1;stroke:#ffffff;stroke-width:8.44071674;stroke-miterlimit:4;stroke-dasharray:none;stroke-opacity:1"
         d="m 396.98828,199.37695 a 40.806485,45.857247 0 0 0 -37.79883,28.66407 l 3.78321,0 a 39.139347,46.981566 0 0 1 34.01562,-23.92383 39.139347,46.981566 0 0 1 33.35938,22.58008 l 3.38281,-1.23243 a 40.806485,45.857247 0 0 0 -36.74219,-26.08789 z"
         transform="translate(-1.2356376e-5,0)"
         id="path4212"
         inkscape:connector-curvature="0" />
      <path
         inkscape:connector-curvature="0"
         id="path4214"
         d="m 381.32555,232.0928 -29.83215,-29.83215 -0.16785,0 0,30 30,0 0,-0.16785 z"
         style="opacity:1;fill:#ffffff;fill-opacity:1;stroke:none;stroke-width:5.74567366;stroke-miterlimit:4;stroke-dasharray:none;stroke-opacity:1" />
    </g>
    <rect
       style="opacity:1;fill:none;fill-opacity:1;stroke:#ffffff;stroke-width:8.02488327;stroke-miterlimit:4;stroke-dasharray:none;stroke-opacity:1"
       id="rect4216"
       width="111.97512"
       height="111.97512"
       x="354.01242"
       y="346.37463" />
    <circle
       r="55.522633"
       inkscape:export-ydpi="14.8"
       inkscape:export-xdpi="14.8"
       cy="545.46381"
       cx="296.46191"
       id="circle4218"
       style="fill:none;stroke:#ffffff;stroke-width:8.95473766;stroke-miterlimit:4;stroke-dasharray:none;stroke-opacity:1" />
    <rect
       y="705.466"
       x="165.52512"
       height="111.97512"
       width="111.97512"
       id="rect4225"
       style="opacity:1;fill:none;fill-opacity:1;stroke:#ffffff;stroke-width:8.02488327;stroke-miterlimit:4;stroke-dasharray:none;stroke-opacity:1"
       inkscape:export-xdpi="10.74"
       inkscape:export-ydpi="10.74" />
    <rect
       style="opacity:1;fill:#ffffff;fill-opacity:1;stroke:#ffffff;stroke-width:7.37741756;stroke-miterlimit:4;stroke-dasharray:none;stroke-opacity:1"
       id="rect4227"
       width="17.622583"
       height="34.853893"
       x="200.17955"
       y="718.70947"
       inkscape:export-xdpi="10.74"
       inkscape:export-ydpi="10.74" />
    <rect
       style="opacity:1;fill:none;fill-opacity:1;stroke:#ffffff;stroke-width:7.00000012;stroke-miterlimit:4;stroke-dasharray:none;stroke-opacity:1"
       id="rect4229"
       width="24.300844"
       height="24.300844"
       x="235.33441"
       y="777.92639"
       inkscape:export-xdpi="10.74"
       inkscape:export-ydpi="10.74" />
    <circle
       style="fill:none;stroke:#ffffff;stroke-width:9.00000015;stroke-miterlimit:4;stroke-dasharray:none;stroke-opacity:1"
       id="circle4231"
       cx="221.61089"
       cy="761.35535"
       inkscape:export-xdpi="10.74"
       inkscape:export-ydpi="10.74"
       r="96.098221" />
    <g
       id="g4306"
       inkscape:export-xdpi="12"
       inkscape:export-ydpi="12">
      <rect
         rx="6.0609155"
         ry="6.060915"
         y="698.03235"
         x="365.17795"
         height="72.994553"
         width="112.99454"
         id="rect4296"
         style="opacity:1;fill:none;fill-opacity:1;stroke:#ffffff;stroke-width:8.00000013;stroke-miterlimit:4;stroke-dasharray:none;stroke-opacity:1" />
      <rect
         style="opacity:1;fill:#ffffff;fill-opacity:1;stroke:none;stroke-width:1.73388433;stroke-miterlimit:4;stroke-dasharray:none;stroke-opacity:1"
         id="rect4300"
         width="33.397686"
         height="18"
         x="379.21747"
         y="678.37823"
         ry="1.494584"
         rx="1.7914188" />
      <rect
         transform="matrix(1,0,-0.25881807,0.96592609,0,0)"
         style="opacity:1;fill:none;fill-opacity:1;stroke:#ffffff;stroke-width:8.13988113;stroke-miterlimit:4;stroke-dasharray:none;stroke-opacity:1"
         id="rect4302"
         width="113.91268"
         height="58.741657"
         x="571.2995"
         y="737.88861"
         ry="4.8774629"
         rx="6.1101637" />
    </g>
    <circle
       style="fill:none;stroke:#ffffff;stroke-width:9.00000015;stroke-miterlimit:4;stroke-dasharray:none;stroke-opacity:1"
       id="circle4304"
       cx="424.12015"
       cy="728.93256"
       inkscape:export-xdpi="12"
       inkscape:export-ydpi="12"
       r="85.844376" />
    <g
       id="g4311"
       transform="translate(21.213204,178.797)"
       inkscape:export-xdpi="14.899327"
       inkscape:export-ydpi="14.899327">
      <rect
         style="opacity:1;fill:none;fill-opacity:1;stroke:#ffffff;stroke-width:8;stroke-miterlimit:4;stroke-dasharray:none;stroke-opacity:1"
         id="rect4313"
         width="112.99454"
         height="72.994553"
         x="365.17795"
         y="698.03235"
         ry="6.060915"
         rx="6.0609155" />
      <rect
         rx="1.7914188"
         ry="1.494584"
         y="678.37823"
         x="379.21747"
         height="18"
         width="33.397686"
         id="rect4315"
         style="opacity:1;fill:#ffffff;fill-opacity:1;stroke:none;stroke-width:1.73388433;stroke-miterlimit:4;stroke-dasharray:none;stroke-opacity:1" />
      <rect
         rx="6.1101637"
         ry="4.8774629"
         y="737.88861"
         x="571.2995"
         height="58.741657"
         width="113.91268"
         id="rect4317"
         style="opacity:1;fill:none;fill-opacity:1;stroke:#ffffff;stroke-width:8.13988113;stroke-miterlimit:4;stroke-dasharray:none;stroke-opacity:1"
         transform="matrix(1,0,-0.25881807,0.96592609,0,0)" />
    </g>
    <rect
       style="opacity:1;fill:none;fill-opacity:1;stroke:#ffffff;stroke-width:7.98900747;stroke-miterlimit:4;stroke-dasharray:none;stroke-opacity:1"
       id="rect4319"
       width="92.010994"
       height="92.010994"
       x="158.99449"
       y="1381.3567"
       ry="4.4727564"
       rx="4.9072528"
       inkscape:export-xdpi="12.68"
       inkscape:export-ydpi="12.68" />
    <g
       inkscape:export-ydpi="12.68"
       inkscape:export-xdpi="12.68"
       transform="matrix(0.7,-0.7,0.7,0.7,-132.65354,1516.7085)"
       id="g4327">
      <rect
         style="fill:#ffffff;fill-opacity:1;stroke:none;stroke-width:5;stroke-miterlimit:4;stroke-dasharray:none;stroke-opacity:1"
         id="rect4329"
         width="10.101525"
         height="60.609154"
         x="85.202805"
         y="310.77701"
         transform="matrix(0.70710679,-0.70710677,0.70710679,0.70710677,0,0)" />
      <rect
         y="-120.55813"
         x="336.03079"
         height="60.609154"
         width="10.101525"
         id="rect4331"
         style="fill:#ffffff;fill-opacity:1;stroke:none;stroke-width:5;stroke-miterlimit:4;stroke-dasharray:none;stroke-opacity:1"
         transform="matrix(0.70710679,0.70710677,-0.70710679,0.70710677,0,0)" />
    </g>
    <rect
       rx="4.9072528"
       ry="4.4727564"
       y="1026.3567"
       x="323.99451"
       height="92.010994"
       width="92.010994"
       id="rect4333"
       style="opacity:1;fill:none;fill-opacity:1;stroke:#ffffff;stroke-width:7.98900747;stroke-miterlimit:4;stroke-dasharray:none;stroke-opacity:1"
       inkscape:export-xdpi="10.7"
       inkscape:export-ydpi="10.7" />
    <rect
       style="opacity:1;fill:none;fill-opacity:1;stroke:#ffffff;stroke-width:7.98900747;stroke-miterlimit:4;stroke-dasharray:none;stroke-opacity:1"
       id="rect4335"
       width="92.010994"
       height="92.010994"
       x="303.99451"
       y="1006.3568"
       ry="4.4727564"
       rx="4.9072528"
       inkscape:export-xdpi="10.7"
       inkscape:export-ydpi="10.7" />
    <rect
       style="opacity:1;fill:none;fill-opacity:1;stroke:#ffffff;stroke-width:7.98900747;stroke-miterlimit:4;stroke-dasharray:none;stroke-opacity:1"
       id="rect4337"
       width="92.010994"
       height="92.010994"
       x="168.99449"
       y="1181.3567"
       ry="4.4727564"
       rx="4.9072528"
       inkscape:export-xdpi="12.68"
       inkscape:export-ydpi="12.68" />
    <path
       inkscape:connector-curvature="0"
       id="path4342"
       d="m 261.10933,929.03852 59.66445,0 0.16767,-0.2226 -30.00001,-39.7774 -29.99999,39.7774 0.16788,0.2226 z"
       style="opacity:1;fill:#ffffff;fill-opacity:1;stroke:none;stroke-width:5.74567366;stroke-miterlimit:4;stroke-dasharray:none;stroke-opacity:1" />
    <path
       style="opacity:1;fill:#ffffff;fill-opacity:1;stroke:none;stroke-width:5.74567366;stroke-miterlimit:4;stroke-dasharray:none;stroke-opacity:1"
       d="m 210.14842,1162.1653 -24.14843,39.7237 0.16796,0.2763 59.66602,0 0.16602,-0.2763 -24.14844,-39.7237 -11.70313,0 z"
       id="path4344"
       inkscape:connector-curvature="0"
       inkscape:export-xdpi="12.68"
       inkscape:export-ydpi="12.68" />
    <text
       xml:space="preserve"
       style="font-style:normal;font-weight:normal;font-size:105.28206635px;line-height:125%;font-family:sans-serif;letter-spacing:0px;word-spacing:0px;fill:#ffffff;fill-opacity:1;stroke:none;stroke-width:2;stroke-linecap:butt;stroke-linejoin:miter;stroke-miterlimit:4;stroke-dasharray:none;stroke-opacity:1"
       x="458.33398"
       y="1289.6281"
       id="text4357"
       sodipodi:linespacing="125%"
       transform="scale(1.0075823,0.99247476)"
       inkscape:export-xdpi="24"
       inkscape:export-ydpi="24"><tspan
         sodipodi:role="line"
         id="tspan4359"
         x="458.33398"
         y="1289.6281">a</tspan></text>
    <circle
       style="fill:none;stroke:#ffffff;stroke-width:8.95473766;stroke-miterlimit:4;stroke-dasharray:none;stroke-opacity:1"
       id="circle4361"
       cx="492.68024"
       cy="1251.4028"
       inkscape:export-xdpi="24"
       inkscape:export-ydpi="24"
       r="55.522633" />
    <circle
       inkscape:export-ydpi="12.68"
       inkscape:export-xdpi="12.68"
       cy="1227.3622"
       cx="215"
       id="circle4369"
       style="fill:none;stroke:#ffffff;stroke-width:9.00000015;stroke-miterlimit:4;stroke-dasharray:none;stroke-opacity:1"
       r="80.642715" />
    <circle
       r="80.642715"
       style="fill:none;stroke:#ffffff;stroke-width:9.00000015;stroke-miterlimit:4;stroke-dasharray:none;stroke-opacity:1"
       id="circle4371"
       cx="205"
       cy="1427.3622"
       inkscape:export-xdpi="12.68"
       inkscape:export-ydpi="12.68" />
    <circle
       style="fill:none;stroke:#ffffff;stroke-width:10.00000017;stroke-miterlimit:4;stroke-dasharray:none;stroke-opacity:1"
       id="circle4373"
       cx="360"
       cy="1062.3622"
       inkscape:export-xdpi="10.7"
       inkscape:export-ydpi="10.7"
       r="95.931755" />
    <rect
       rx="4.9072528"
       ry="4.4727564"
       y="1389.3567"
       x="363.99451"
       height="92.010994"
       width="92.010994"
       id="rect4375"
       style="opacity:1;fill:#ff0000;fill-opacity:1;stroke:#ffffff;stroke-width:7.98900747;stroke-miterlimit:4;stroke-dasharray:none;stroke-opacity:1"
       inkscape:export-xdpi="9.2700005"
       inkscape:export-ydpi="9.2700005" />
    <rect
       style="opacity:1;fill:#ffff00;fill-opacity:1;stroke:#ffffff;stroke-width:7.98900747;stroke-miterlimit:4;stroke-dasharray:none;stroke-opacity:1"
       id="rect4377"
       width="92.010994"
       height="92.010994"
       x="423.99451"
       y="1419.3567"
       ry="4.4727564"
       rx="4.9072528"
       inkscape:export-xdpi="9.2700005"
       inkscape:export-ydpi="9.2700005" />
    <rect
       rx="4.9072528"
       ry="4.4727564"
       y="1449.3567"
       x="393.99451"
       height="92.010994"
       width="92.010994"
       id="rect4379"
       style="opacity:1;fill:#0000ff;fill-opacity:1;stroke:#ffffff;stroke-width:7.98900747;stroke-miterlimit:4;stroke-dasharray:none;stroke-opacity:1"
       inkscape:export-xdpi="9.2700005"
       inkscape:export-ydpi="9.2700005" />
    <circle
       inkscape:export-ydpi="9.2700005"
       inkscape:export-xdpi="9.2700005"
       cy="1457.3622"
       cx="435"
       id="circle4381"
       style="fill:none;stroke:#ffffff;stroke-width:11.00000018;stroke-miterlimit:4;stroke-dasharray:none;stroke-opacity:1"
       r="110.97626" />
    <ellipse
       style="fill:none;stroke:#ffffff;stroke-width:10.00000017;stroke-miterlimit:4;stroke-dasharray:none;stroke-opacity:1"
       id="circle4383"
       cx="485"
       cy="237.36218"
       inkscape:export-xdpi="14.23"
       inkscape:export-ydpi="14.23"
       rx="70.920441"
       ry="70.920448" />
    <circle
       inkscape:export-ydpi="14.23"
       inkscape:export-xdpi="14.23"
       cy="219.89265"
       cx="465.9588"
       id="circle4385"
       style="fill:none;stroke:#ffffff;stroke-width:8;stroke-miterlimit:4;stroke-dasharray:none;stroke-opacity:1"
       r="23.958801" />
    <rect
       style="fill:#ffffff;fill-opacity:1;stroke:none;stroke-width:5;stroke-miterlimit:4;stroke-dasharray:none;stroke-opacity:1"
       id="rect4387"
       width="10.101525"
       height="60.609154"
       x="171.13014"
       y="510.54852"
       transform="matrix(0.70710679,-0.70710677,0.70710679,0.70710677,0,0)"
       inkscape:export-xdpi="14.23"
       inkscape:export-ydpi="14.23" />
    <circle
       inkscape:export-ydpi="28.799999"
       inkscape:export-xdpi="28.799999"
       r="46.347488"
       cy="293.37744"
       cx="252.83249"
       id="circle4389"
       style="fill:none;stroke:#ffffff;stroke-width:7.30500012;stroke-miterlimit:4;stroke-dasharray:none;stroke-opacity:1" />
    <g
       inkscape:export-ydpi="28.799999"
       inkscape:export-xdpi="28.799999"
       transform="matrix(0.70710678,-0.70710678,0.70710678,0.70710678,-88.249052,383.631)"
       id="g4391"
       style="stroke-width:7.30500013;stroke-miterlimit:4;stroke-dasharray:none">
      <rect
         style="fill:#ffffff;fill-opacity:1;stroke:none;stroke-width:7.30500015;stroke-miterlimit:4;stroke-dasharray:none;stroke-opacity:1"
         id="rect4393"
         width="10.101525"
         height="60.609154"
         x="85.202805"
         y="310.77701"
         transform="matrix(0.70710679,-0.70710677,0.70710679,0.70710677,0,0)" />
      <rect
         y="-120.55813"
         x="336.03079"
         height="60.609154"
         width="10.101525"
         id="rect4395"
         style="fill:#ffffff;fill-opacity:1;stroke:none;stroke-width:7.30500015;stroke-miterlimit:4;stroke-dasharray:none;stroke-opacity:1"
         transform="matrix(0.70710679,0.70710677,-0.70710679,0.70710677,0,0)" />
    </g>
    <g
       inkscape:export-ydpi="24"
       inkscape:export-xdpi="24"
       transform="matrix(-1,0,0,1,518.17254,434.3656)"
       id="g4397">
      <circle
         style="fill:none;stroke:#ffffff;stroke-width:8.95473766;stroke-miterlimit:4;stroke-dasharray:none;stroke-opacity:1"
         id="circle4399"
         cx="350"
         cy="137.36218"
         inkscape:export-xdpi="14.8"
         inkscape:export-ydpi="14.8"
         r="55.522633"
         d="M 405.52263,137.36218 A 55.522633,55.522633 0 0 1 350,192.88482 55.522633,55.522633 0 0 1 294.47737,137.36218 55.522633,55.522633 0 0 1 350,81.83955 a 55.522633,55.522633 0 0 1 55.52263,55.52263 z" />
      <g
         id="g4401"
         transform="matrix(0.99958763,0,0,0.99897655,-44.180681,-77.661489)">
        <path
           id="path4403"
           transform="translate(-1.2356376e-5,0)"
           d="m 396.98828,199.37695 a 40.806485,45.857247 0 0 0 -37.79883,28.66407 l 3.78321,0 a 39.139347,46.981566 0 0 1 34.01562,-23.92383 39.139347,46.981566 0 0 1 33.35938,22.58008 l 3.38281,-1.23243 a 40.806485,45.857247 0 0 0 -36.74219,-26.08789 z"
           style="opacity:1;fill:none;fill-opacity:1;stroke:#ffffff;stroke-width:8.44071674;stroke-miterlimit:4;stroke-dasharray:none;stroke-opacity:1"
           inkscape:connector-curvature="0" />
        <path
           style="opacity:1;fill:#ffffff;fill-opacity:1;stroke:none;stroke-width:5.74567366;stroke-miterlimit:4;stroke-dasharray:none;stroke-opacity:1"
           d="m 381.32555,232.0928 -29.83215,-29.83215 -0.16785,0 0,30 30,0 0,-0.16785 z"
           id="path4405"
           inkscape:connector-curvature="0" />
      </g>
    </g>
    <g
       transform="translate(-112.60478,198.19218)"
       id="g4407"
       inkscape:export-xdpi="18.4"
       inkscape:export-ydpi="18.4">
      <path
         inkscape:connector-curvature="0"
         id="path4409"
         transform="translate(-1.2356376e-5,0)"
         d="m 396.98828,199.37695 a 40.806485,45.857247 0 0 0 -37.79883,28.66407 l 3.78321,0 a 39.139347,46.981566 0 0 1 34.01562,-23.92383 39.139347,46.981566 0 0 1 33.35938,22.58008 l 3.38281,-1.23243 a 40.806485,45.857247 0 0 0 -36.74219,-26.08789 z"
         style="opacity:1;fill:none;fill-opacity:1;stroke:#ffffff;stroke-width:8.44071674;stroke-miterlimit:4;stroke-dasharray:none;stroke-opacity:1" />
      <path
         style="opacity:1;fill:#ffffff;fill-opacity:1;stroke:none;stroke-width:5.74567366;stroke-miterlimit:4;stroke-dasharray:none;stroke-opacity:1"
         d="m 381.32555,232.0928 -29.83215,-29.83215 -0.16785,0 0,30 30,0 0,-0.16785 z"
         id="path4411"
         inkscape:connector-curvature="0" />
    </g>
    <rect
       inkscape:export-ydpi="7.1900001"
       inkscape:export-xdpi="7.1900001"
       style="opacity:1;fill:none;fill-opacity:1;stroke:#ffffff;stroke-width:8.02488327;stroke-miterlimit:4;stroke-dasharray:none;stroke-opacity:1"
       id="rect4424"
       width="111.97512"
       height="111.97512"
       x="413.01248"
       y="496.36441" />
    <rect
       inkscape:export-ydpi="7.1900001"
       inkscape:export-xdpi="7.1900001"
       y="509.60788"
       x="447.66693"
       height="34.853893"
       width="17.622583"
       id="rect4426"
       style="opacity:1;fill:#ffffff;fill-opacity:1;stroke:#ffffff;stroke-width:7.37741756;stroke-miterlimit:4;stroke-dasharray:none;stroke-opacity:1" />
    <rect
       inkscape:export-ydpi="7.1900001"
       inkscape:export-xdpi="7.1900001"
       y="568.82483"
       x="482.82178"
       height="24.300844"
       width="24.300844"
       id="rect4428"
       style="opacity:1;fill:none;fill-opacity:1;stroke:#ffffff;stroke-width:7;stroke-miterlimit:4;stroke-dasharray:none;stroke-opacity:1" />
  </g>
</svg>
